<svg width="116" height="28" viewBox="0 0 116 28" fill="none" xmlns="http://www.w3.org/2000/svg">
<g clip-path="url(#clip0_984_1182)">
<path d="M19.9436 22.4307C18.6442 22.4423 17.3559 22.192 16.1565 21.6949C15.0125 21.218 13.9758 20.5187 13.1072 19.6381C12.2329 18.7498 11.5437 17.6985 11.0793 16.5445C10.5844 15.31 10.3373 13.991 10.3522 12.662C10.338 11.3309 10.5805 10.0094 11.0665 8.769C11.5158 7.6172 12.1967 6.56863 13.0675 5.68743C13.9383 4.80623 14.9807 4.11092 16.1309 3.64402C17.3409 3.15353 18.637 2.90773 19.9436 2.92097C21.2146 2.90115 22.4768 3.13401 23.6561 3.60585C24.6984 4.02662 25.6476 4.64692 26.4495 5.43151C27.183 6.14389 27.7418 7.01449 28.0829 7.97598L24.5794 9.64473C24.2472 8.69161 23.6174 7.86898 22.7819 7.29683C21.9465 6.72467 20.949 6.43292 19.9351 6.46414C18.8956 6.44703 17.8725 6.7227 16.9839 7.25929C16.1333 7.78352 15.4483 8.53523 15.0072 9.42845C14.5206 10.4364 14.2802 11.5443 14.3056 12.662C14.281 13.7845 14.5213 14.8971 15.0072 15.9105C15.4456 16.8088 16.1309 17.5653 16.9839 18.0924C17.8758 18.6275 18.9021 18.9003 19.9436 18.879C20.9575 18.9102 21.955 18.6185 22.7905 18.0463C23.6259 17.4742 24.2557 16.6516 24.5879 15.6984L28.0829 17.3736C27.7416 18.3349 27.1827 19.2055 26.4495 19.918C25.6476 20.7032 24.6985 21.3243 23.6561 21.7458C22.4768 22.2176 21.2146 22.4505 19.9436 22.4307Z" fill="#0143F0"/>
<path d="M30.3369 22.1253V2.9209H34.1539V22.1253H30.3369Z" fill="#0143F0"/>
<path d="M36.96 7.02606V3.22632H40.7854V7.02606H36.96ZM36.96 22.1211V8.27285H40.7854V22.1254L36.96 22.1211Z" fill="#0143F0"/>
<path d="M43.5938 27.1995V8.27288H47.1655V10.9128L46.835 10.1515C47.2991 9.45349 47.9476 8.89596 48.7093 8.54005C49.5597 8.14761 50.4886 7.95257 51.4259 7.96966C52.6918 7.95319 53.9374 8.28724 55.0233 8.93444C56.0881 9.56613 56.9698 10.4619 57.5821 11.534C58.2178 12.6513 58.5431 13.9166 58.5246 15.2002C58.5398 16.4777 58.2193 17.7371 57.5949 18.8536C56.9939 19.9312 56.1179 20.8322 55.0552 21.466C53.9524 22.1173 52.6893 22.4513 51.4068 22.4307C50.5 22.4398 49.6012 22.2622 48.7669 21.9091C47.9867 21.5859 47.3115 21.0546 46.8158 20.3739L47.4278 19.5894V27.1995H43.5938ZM50.9419 19.0042C51.6033 19.018 52.256 18.8515 52.829 18.5228C53.3743 18.2035 53.8178 17.7375 54.1085 17.1785C54.4243 16.5672 54.5826 15.8874 54.5691 15.2002C54.5836 14.517 54.4252 13.8411 54.1085 13.2346C53.813 12.6785 53.3707 12.213 52.829 11.8881C52.2585 11.5519 51.6049 11.3808 50.9419 11.3941C50.3005 11.3842 49.6688 11.5508 49.1166 11.8754C48.5807 12.1981 48.1476 12.6649 47.867 13.2219C47.5735 13.8406 47.4214 14.5161 47.4214 15.2002C47.4214 15.8843 47.5735 16.5598 47.867 17.1785C48.1476 17.7349 48.5808 18.201 49.1166 18.5228C49.6684 18.8484 50.3004 19.0151 50.9419 19.0042Z" fill="#0143F0"/>
<path d="M81.7459 22.4307C80.4459 22.4423 79.1569 22.192 77.9567 21.6949C76.813 21.2174 75.7764 20.5182 74.9074 19.6381C74.0338 18.7492 73.3448 17.698 72.8796 16.5445C72.3855 15.3097 72.1385 13.9909 72.1524 12.662C72.1393 11.331 72.3817 10.0097 72.8668 8.76898C73.3161 7.61717 73.9969 6.56861 74.8677 5.68741C75.7385 4.80621 76.7809 4.1109 77.9311 3.64399C79.1418 3.1535 80.4387 2.90771 81.7459 2.92094C83.0169 2.90136 84.2791 3.1342 85.4584 3.60583C86.502 4.02665 87.4525 4.6469 88.2561 5.43148C88.9896 6.14386 89.5484 7.01446 89.8895 7.97595L86.3924 9.65106C86.0609 8.69793 85.4316 7.87518 84.5964 7.30296C83.7612 6.73074 82.7639 6.43905 81.7502 6.47047C80.7086 6.44886 79.6823 6.72165 78.7905 7.25714C77.9399 7.78137 77.2549 8.53309 76.8138 9.4263C76.3222 10.4336 76.0781 11.5426 76.1016 12.662C76.0759 13.7846 76.3162 14.8974 76.8031 15.9105C77.2415 16.8088 77.9269 17.5653 78.7798 18.0923C79.6716 18.6278 80.698 18.9006 81.7396 18.879C82.7533 18.9104 83.7506 18.6187 84.5857 18.0465C85.4209 17.4743 86.0502 16.6515 86.3817 15.6984L89.8788 17.3735C89.5375 18.3349 88.9787 19.2054 88.2454 19.918C87.4432 20.7028 86.4942 21.3237 85.452 21.7458C84.2747 22.2166 83.0148 22.4494 81.7459 22.4307Z" fill="#251F1D"/>
<path d="M97.1292 22.4307C96.1234 22.4603 95.1293 22.2099 94.2591 21.7076C93.4709 21.2279 92.845 20.525 92.4615 19.689C92.0348 18.7409 91.8257 17.7102 91.8495 16.6717V8.27283H95.675V16.3664C95.6642 16.8465 95.7742 17.3217 95.9948 17.7489C96.199 18.1394 96.5142 18.4616 96.9011 18.6755C97.3118 18.8912 97.7693 19.004 98.2338 19.004C98.6983 19.004 99.1558 18.8912 99.5665 18.6755C99.947 18.4574 100.257 18.136 100.46 17.7489C100.679 17.3211 100.788 16.8462 100.778 16.3664V8.27283H104.605V22.1253H101.034V19.3858L101.247 19.9943C100.964 20.7755 100.407 21.4285 99.6774 21.8327C98.8939 22.2468 98.0162 22.4528 97.1292 22.4307Z" fill="#251F1D"/>
<path d="M114.122 22.278C112.437 22.278 111.132 21.8257 110.205 20.921C109.278 20.0163 108.814 18.7518 108.814 17.1276V11.5722H106.469V8.27284H106.597C107.311 8.27284 107.859 8.09684 108.243 7.74062C108.627 7.38439 108.816 6.85217 108.816 6.14184V5.1283H112.655V8.27284H115.919V11.5722H112.642V16.8731C112.627 17.2817 112.714 17.6876 112.896 18.0542C113.071 18.3702 113.35 18.6165 113.687 18.7518C114.109 18.9153 114.56 18.9925 115.013 18.9787C115.15 18.9784 115.287 18.9707 115.423 18.9554L115.907 18.9045V22.1254C115.651 22.1593 115.363 22.1932 115.039 22.2271C114.734 22.2601 114.428 22.277 114.122 22.278Z" fill="#251F1D"/>
<path d="M57 28V24.9028H62.7287V3.09389H57V0H67V28H57Z" fill="#0143F0"/>
<path d="M1 28V0H11V3.09389H5.27023V24.9028H11V27.9967L1 28Z" fill="#0143F0"/>
</g>
<defs>
<clipPath id="clip0_984_1182">
<rect width="116" height="28" fill="white"/>
</clipPath>
</defs>
</svg>
